<svg xmlns="http://www.w3.org/2000/svg" viewBox="0 0 512 512"><path d="M400 0H112C50.144 0 0 50.144 0 112v288c0 61.856 50.144 112 112 112h288c61.856 0 112-50.144 112-112V112C512 50.144 461.856 0 400 0zm80 400c0 44.183-35.817 80-80 80H112c-44.183 0-80-35.817-80-80V112c0-44.183 35.817-80 80-80h288c44.183 0 80 35.817 80 80v288z"/><path d="M240 150.56V352h32V150.56l52.64 52.64 22.56-22.56-80-80c-6.241-6.204-16.319-6.204-22.56 0l-80 80 22.56 22.56 52.8-52.64zM384 352h-32v48H160v-48h-32v48c-.619 17.043 12.696 31.361 29.74 31.98.38.014.76.021 1.14.02h194.24c17.055.011 30.889-13.805 30.9-30.86 0-.38-.007-.76-.02-1.14v-48z"/></svg>