<?xml version="1.0" encoding="iso-8859-1"?>
<!-- Generator: Adobe Illustrator 19.0.0, SVG Export Plug-In . SVG Version: 6.00 Build 0)  -->
<svg version="1.1" id="Capa_1" xmlns="http://www.w3.org/2000/svg" xmlns:xlink="http://www.w3.org/1999/xlink" x="0px" y="0px"
	 viewBox="0 0 512 512" style="enable-background:new 0 0 512 512;" xml:space="preserve">
<g>
	<g>
		<g>
			<path d="M400,0H112C50.144,0,0,50.144,0,112v288c0,61.856,50.144,112,112,112h288c61.856,0,112-50.144,112-112V112
				C512,50.144,461.856,0,400,0z M480,400c0,44.183-35.817,80-80,80H112c-44.183,0-80-35.817-80-80V112c0-44.183,35.817-80,80-80
				h288c44.183,0,80,35.817,80,80V400z"/>
			<path d="M240,150.56V352h32V150.56l52.64,52.64l22.56-22.56l-80-80c-6.241-6.204-16.319-6.204-22.56,0l-80,80l22.56,22.56
				L240,150.56z"/>
			<path d="M384,352h-32v48H160v-48h-32v48c-0.619,17.043,12.696,31.361,29.74,31.98c0.38,0.014,0.76,0.021,1.14,0.02h194.24
				c17.055,0.011,30.889-13.805,30.9-30.86c0-0.38-0.007-0.76-0.02-1.14V352z"/>
		</g>
	</g>
</g>
<g>
</g>
<g>
</g>
<g>
</g>
<g>
</g>
<g>
</g>
<g>
</g>
<g>
</g>
<g>
</g>
<g>
</g>
<g>
</g>
<g>
</g>
<g>
</g>
<g>
</g>
<g>
</g>
<g>
</g>
</svg>
