<svg data-name="Group 356" xmlns="http://www.w3.org/2000/svg" width="16.078" height="12.633"><path data-name="Path 4076" d="M14.643 12.633a1.374 1.374 0 00.941-.355l-4.555-4.555-.315.227q-.511.377-.83.588a5.112 5.112 0 01-.848.431 2.585 2.585 0 01-.987.22h-.018a2.584 2.584 0 01-.987-.22 5.1 5.1 0 01-.848-.431q-.319-.211-.83-.588l-.314-.228-4.556 4.557a1.375 1.375 0 00.941.355z" fill="#fff"/><path data-name="Path 4077" d="M.906 4.854A4.756 4.756 0 010 4.073v6.931l4.015-4.015Q2.81 6.148.906 4.854z" fill="#fff"/><path data-name="Path 4078" d="M15.181 4.854q-1.833 1.241-3.116 2.137l4.013 4.014V4.074a4.951 4.951 0 01-.897.78z" fill="#fff"/><path data-name="Path 4079" d="M14.642 0H1.435A1.281 1.281 0 00.372.466 1.81 1.81 0 000 1.632a2.1 2.1 0 00.494 1.226 4.451 4.451 0 001.05 1.036q.3.215 1.839 1.279c.552.383 1.032.716 1.445 1l.906.633.134.1.247.178q.292.211.484.341t.467.292a2.721 2.721 0 00.516.242 1.427 1.427 0 00.449.081h.018a1.428 1.428 0 00.449-.081 2.715 2.715 0 00.516-.242q.274-.162.467-.292t.483-.338l.247-.178.134-.1.908-.631 3.291-2.285a4.268 4.268 0 001.095-1.1 2.374 2.374 0 00.439-1.355A1.447 1.447 0 0014.642.002z" fill="#fff"/></svg>