<svg xmlns="http://www.w3.org/2000/svg" width="98.824" height="62.5"><g data-name="Group 405"><path data-name="Path 4185" d="M31.792 53.125a3.125 3.125 0 003.125 3.125 3.124 3.124 0 003.125-3.125A3.124 3.124 0 0034.917 50a3.124 3.124 0 00-3.125 3.125z"/><path data-name="Path 4186" d="M76.949 53.125a3.124 3.124 0 003.125 3.125 3.125 3.125 0 003.125-3.125A3.124 3.124 0 0080.074 50a3.124 3.124 0 00-3.125 3.125z"/><path data-name="Path 4187" d="M89.449 35.937a1.564 1.564 0 00-1.563-1.562 1.563 1.563 0 00-1.562 1.562 1.563 1.563 0 001.562 1.563 1.564 1.564 0 001.563-1.563z"/><path data-name="Path 4188" d="M98.824 39.282a7.792 7.792 0 00-3.48-6.5l-5.7-3.8a1.565 1.565 0 01-.616-.806l-5.2-15.6a4.682 4.682 0 00-4.448-3.2H66.633V4.687A4.692 4.692 0 0061.946 0H23.508a4.692 4.692 0 00-4.687 4.687v43.75a4.692 4.692 0 004.687 4.688h2.031a9.386 9.386 0 009.375 9.375 9.385 9.385 0 009.375-9.375h26.407a9.386 9.386 0 009.375 9.375 9.386 9.386 0 009.375-9.375h4.687a4.693 4.693 0 004.688-4.688zm-25 13.843a6.259 6.259 0 016.25-6.25 6.26 6.26 0 016.25 6.25 6.257 6.257 0 01-6.25 6.25 6.257 6.257 0 01-6.25-6.25zm-45.157 0a6.259 6.259 0 016.25-6.25 6.259 6.259 0 016.25 6.25 6.257 6.257 0 01-6.25 6.25 6.257 6.257 0 01-6.25-6.25zM63.511 50H43.756a9.4 9.4 0 00-8.839-6.25A9.408 9.408 0 0026.079 50h-2.568a1.564 1.564 0 01-1.562-1.563V4.687a1.563 1.563 0 011.562-1.562h38.438a1.563 1.563 0 011.562 1.562zm22.207-21.875H72.886v-7.813h10.228zm9.981 11.157v4.468h-4.688a1.562 1.562 0 00-1.562 1.562 1.562 1.562 0 001.562 1.563h4.688v1.562A1.565 1.565 0 0194.136 50h-5.223a9.407 9.407 0 00-8.839-6.25A9.409 9.409 0 0071.235 50h-4.6V12.5h12.747a1.561 1.561 0 011.483 1.068l1.206 3.619H71.323a1.563 1.563 0 00-1.563 1.563v10.937a1.563 1.563 0 001.563 1.563h16.151a4.633 4.633 0 00.44.335l5.7 3.8a4.677 4.677 0 012.086 3.897z"/><path data-name="Path 4189" d="M58.355 32.812a1.562 1.562 0 00-1.563-1.562H55.23a12.521 12.521 0 00-8.394-11.8 4.655 4.655 0 00.581-2.258 4.692 4.692 0 00-4.687-4.687 4.692 4.692 0 00-4.688 4.687 4.661 4.661 0 00.578 2.253 12.5 12.5 0 00-8.39 11.81h-1.563a1.562 1.562 0 00-1.562 1.562 1.562 1.562 0 001.562 1.563h28.125a1.563 1.563 0 001.563-1.568zM42.73 18.75a1.565 1.565 0 01-1.563-1.563 1.564 1.564 0 011.563-1.562 1.563 1.563 0 011.562 1.562 1.564 1.564 0 01-1.562 1.563zm9.375 12.5h-18.75a9.37 9.37 0 019.375-9.375 9.385 9.385 0 019.37 9.375z"/><path data-name="Path 4190" d="M83.2 35.937a1.562 1.562 0 00-1.563-1.562H71.325a1.562 1.562 0 00-1.563 1.562 1.563 1.563 0 001.563 1.563h10.312a1.563 1.563 0 001.563-1.563z"/><path data-name="Line 8" fill="none" stroke="#000" stroke-linecap="round" stroke-miterlimit="10" stroke-width="3" d="M9.5 19.632h11"/><path data-name="Line 9" fill="none" stroke="#000" stroke-linecap="round" stroke-miterlimit="10" stroke-width="3" d="M1.5 27.632h19"/><path data-name="Line 10" fill="none" stroke="#000" stroke-linecap="round" stroke-miterlimit="10" stroke-width="3" d="M15.5 36.632h5"/></g></svg>