<svg xmlns="http://www.w3.org/2000/svg" width="79.736" height="61"><g data-name="Group 389" fill="#fff" stroke="#fff"><path data-name="Path 4144" d="M56.281 34.711a5.626 5.626 0 00-5.63 5.616 5.632 5.632 0 005.538 5.617 5.591 5.591 0 005.7-5.617 5.586 5.586 0 00-5.608-5.616zm-.053 9.37a3.831 3.831 0 01-3.714-3.74 3.819 3.819 0 013.767-3.767 3.779 3.779 0 013.739 3.78 3.781 3.781 0 01-3.792 3.727z"/><path data-name="Path 4145" d="M71.516 58.66a2.971 2.971 0 00-.761-.066c-1.8 0-3.6.013-5.394 0-.183-.013-.538.131-.5-.249.065-.578.21-1.155.328-1.732.065-.289.289-.237.485-.223.7.078 1.378.118 2.061.223a1.657 1.657 0 001.916-.6c.472-.735.078-1.352-.342-1.968q-2.2-3.228-4.383-6.483c-.144-.21-.42-.381-.1-.709a3.1 3.1 0 00.722-2.3 3.3 3.3 0 01.709-2.2 3.007 3.007 0 00-.013-4.068 3.408 3.408 0 01-.709-2.139 2.982 2.982 0 00-2.375-3.307 3.566 3.566 0 01-1.877-1.364 2.934 2.934 0 00-3.805-1.247 3.7 3.7 0 01-2.323.026c-1.824-.577-2.808-.262-3.924 1.286a3.45 3.45 0 01-1.758 1.286 2.978 2.978 0 00-2.454 3.32 3.537 3.537 0 01-.7 2.139 3 3 0 00-.014 4.081 3.44 3.44 0 01.709 2.2 2.95 2.95 0 00.551 2.047c.368.446.236.709-.026 1.1-1.509 2.191-2.992 4.409-4.488 6.613a1.384 1.384 0 00-.131 1.706 1.538 1.538 0 001.614.63c.761-.1 1.522-.17 2.283-.275.381-.04.525.065.6.472.354 1.732.367 1.732-1.417 1.732q-11.4 0-22.768.013c-.578 0-.775-.105-.748-.735.065-1.391.013-2.768.026-4.159 0-.644-.184-1.116-.9-1.182-.617-.039-.971.407-.971 1.208 0 1.43-.014 2.874.013 4.3.013.433-.079.564-.525.564a536.943 536.943 0 00-7.926 0c-.42 0-.5-.144-.486-.538.026-1.246.013-2.506.013-3.766 0-5.564-.079-11.128.04-16.679a11.291 11.291 0 0110.235-11.259c1.575-.21 3.176-.052 5-.131a14.733 14.733 0 01-2.638-1.654.825.825 0 00-.577-.183 13.341 13.341 0 00-7.152 1.719 12.975 12.975 0 00-6.745 11.666c-.092 6.456-.026 12.912-.026 19.369 0 1.338 0 1.338-1.326 1.443a.165.165 0 00-.078.013.9.9 0 00-.919.932.883.883 0 00.892.945 3.766 3.766 0 00.538.013h61.769a2.958 2.958 0 00.761-.053.846.846 0 00.7-.892.836.836 0 00-.686-.885zM47.777 41.207a1.253 1.253 0 01-.013-1.746 4.875 4.875 0 001.128-3.49 1.158 1.158 0 01.945-1.3 4.873 4.873 0 003.019-2.205 1.131 1.131 0 011.509-.512 4.905 4.905 0 003.8.013 1.121 1.121 0 011.522.5 4.87 4.87 0 003.019 2.205 1.149 1.149 0 01.958 1.286 5.052 5.052 0 001.201 3.621 1.366 1.366 0 01.288.748 1.663 1.663 0 01-.367.867 4.8 4.8 0 00-1.1 3.411 1.251 1.251 0 01-1.037 1.4 4.753 4.753 0 00-2.9 2.112 1.242 1.242 0 01-1.706.538 4.456 4.456 0 00-3.5 0 1.252 1.252 0 01-1.719-.525 4.7 4.7 0 00-2.9-2.112 1.243 1.243 0 01-1.024-1.4 4.771 4.771 0 00-1.123-3.411zm1.326 14.487a1.424 1.424 0 00-1.707-1.247c-.734.079-1.469.158-2.322.263.512-.788.984-1.483 1.443-2.165.945-1.4 1.916-2.782 2.835-4.2a.537.537 0 01.853-.21 3.31 3.31 0 011.023 1.024 3.127 3.127 0 003.255 1.483 7571.276 7571.276 0 00-4.948 7.217c-.17-.84-.301-1.509-.432-2.17zm2.2 2.9c1.693-2.48 3.307-4.816 4.974-7.244 1.653 2.415 3.267 4.764 4.96 7.244zm12.112-2.834l-.354 1.889c0 .013-.039.027-.131.079-1.575-2.31-3.163-4.606-4.856-7.073a3.188 3.188 0 003.307-1.588c.118-.157.25-.328.381-.472.735-.788 1.063-.775 1.666.105q1.793 2.656 3.609 5.341c.131.183.236.38.407.656-.8-.092-1.509-.158-2.205-.237a1.47 1.47 0 00-1.82 1.3z"/><path data-name="Path 4146" d="M33.316.5A12.656 12.656 0 0020.64 13.2a12.687 12.687 0 0012.571 12.589 12.694 12.694 0 0012.768-12.7A12.7 12.7 0 0033.316.5zm-.039 23.424a10.826 10.826 0 01-10.761-10.76A10.789 10.789 0 0133.329 2.389a10.713 10.713 0 0110.736 10.735 10.772 10.772 0 01-10.788 10.8z"/><path data-name="Path 4147" d="M28.165 38.312c.226-1.207.5-2.716.791-4.221.392-2.035.813-4.064 1.179-6.1.087-.48.2-.7.719-.53a2.032 2.032 0 00.609.077c.551.007.643.263.542.774-.648 3.261-1.254 6.531-1.909 9.791a1.5 1.5 0 00.448 1.522c.736.714 1.471 1.431 2.16 2.189.47.518.816.451 1.255-.029.64-.7 1.307-1.376 2-2.018a1.586 1.586 0 00.509-1.714c-.763-3.157-1.472-6.326-2.234-9.483-.154-.635-.231-1.078.651-.982a2.193 2.193 0 00.6-.1c.312-.057.457.067.529.384.8 3.464 1.622 6.922 2.394 10.391a2.652 2.652 0 01-.8 2.461q-1.3 1.359-2.654 2.674a2.309 2.309 0 01-3.315-.016c-.9-.875-1.78-1.772-2.651-2.677a3.1 3.1 0 01-.823-2.393z"/><path data-name="Path 4148" d="M52.724 28.158a2.328 2.328 0 00-.661.26c-.876.8-1.547.354-2.348-.213a10.979 10.979 0 00-6.276-1.939c-1.193-.022-2.387 0-3.813 0a22.745 22.745 0 002.729-1.752.768.768 0 01.43-.108 13.585 13.585 0 019.939 3.752z"/><path data-name="Path 4149" d="M4.915 60.498c-1.1 0-1.629-.309-1.623-.958s.515-.944 1.636-.944c1.141 0 1.631.272 1.656.92.027.673-.493.98-1.669.982z"/><path data-name="Path 4150" d="M74.775 60.499c-1.122 0-1.629-.3-1.629-.953s.516-.953 1.63-.951c1.163 0 1.7.322 1.666.991-.033.642-.532.915-1.667.913z"/><path data-name="Path 4151" d="M2.359 59.512a.9.9 0 01-.911.958.869.869 0 01-.947-.9.865.865 0 01.9-.944.9.9 0 01.958.886z"/><path data-name="Path 4152" d="M77.378 59.527a.9.9 0 01.946-.9.868.868 0 01.912.935.87.87 0 01-.937.91.9.9 0 01-.921-.945z"/><path data-name="Path 4153" d="M56.281 34.711a5.626 5.626 0 00-5.63 5.616 5.632 5.632 0 005.538 5.617 5.591 5.591 0 005.7-5.617 5.586 5.586 0 00-5.608-5.616zm-.053 9.37a3.831 3.831 0 01-3.714-3.74 3.819 3.819 0 013.767-3.767 3.779 3.779 0 013.739 3.78 3.781 3.781 0 01-3.792 3.727z"/><path data-name="Path 4154" d="M56.281 34.711a5.626 5.626 0 00-5.63 5.616 5.632 5.632 0 005.538 5.617 5.591 5.591 0 005.7-5.617 5.586 5.586 0 00-5.608-5.616zm-.053 9.37a3.831 3.831 0 01-3.714-3.74 3.819 3.819 0 013.767-3.767 3.779 3.779 0 013.739 3.78 3.781 3.781 0 01-3.792 3.727z"/></g></svg>