<svg xmlns="http://www.w3.org/2000/svg" width="62" height="60"><g data-name="Group 381" fill="#fff"><path data-name="Path 4098" d="M57 58h-1V7a1 1 0 00-1-1h-6V1a1 1 0 00-1-1H26a1 1 0 00-1 1v5h-6a1 1 0 00-1 1v51h-7v-7.076a7 7 0 005.927-7.929 7 7 0 00-2.6-4.5 5 5 0 00-1.834-6.829 5 5 0 00-6.829 1.835 5 5 0 000 4.994 7 7 0 00-1.166 9.831 7 7 0 004.5 2.6v2.158l-1.293-1.293a1 1 0 00-1.415 0 1 1 0 000 1.415l2.5 2.5a1 1 0 00.208.157v2.135h-8a1 1 0 00-1 1 1 1 0 001 1h56a1 1 0 001-1A1 1 0 0057 58zM10 42a1 1 0 00-1 1v5.9A5 5 0 015.1 43a5 5 0 012.478-3.375 1 1 0 00.391-1.359.992.992 0 00-.149-.2 3 3 0 01.118-4.241 3 3 0 014.241.118 3 3 0 010 4.123 1 1 0 00.039 1.414.952.952 0 00.2.148 5 5 0 011.953 6.8 5 5 0 01-3.374 2.477v-5.9A1 1 0 0010 42zM27 2h20v4H27zm9 56h-3V46h3zm5 0h-3V46h3zm13 0H43V45a1 1 0 00-1-1H32a1 1 0 00-1 1v13H20V8h34z"/><path data-name="Path 4099" d="M61 58h-1a1 1 0 00-1 1 1 1 0 001 1h1a1 1 0 001-1 1 1 0 00-1-1z"/><path data-name="Path 4100" d="M41 32h-8a1 1 0 00-1 1v8a1 1 0 001 1h8a1 1 0 001-1v-8a1 1 0 00-1-1zm-1 8h-6v-6h6z"/><path data-name="Path 4101" d="M30 32h-8a1 1 0 00-1 1v8a1 1 0 001 1h8a1 1 0 001-1v-8a1 1 0 00-1-1zm-1 8h-6v-6h6z"/><path data-name="Path 4102" d="M52 32h-8a1 1 0 00-1 1v8a1 1 0 001 1h8a1 1 0 001-1v-8a1 1 0 00-1-1zm-1 8h-6v-6h6z"/><path data-name="Path 4103" d="M41 21h-8a1 1 0 00-1 1v8a1 1 0 001 1h8a1 1 0 001-1v-8a1 1 0 00-1-1zm-1 8h-6v-6h6z"/><path data-name="Path 4104" d="M30 21h-8a1 1 0 00-1 1v8a1 1 0 001 1h8a1 1 0 001-1v-8a1 1 0 00-1-1zm-1 8h-6v-6h6z"/><path data-name="Path 4105" d="M52 21h-8a1 1 0 00-1 1v8a1 1 0 001 1h8a1 1 0 001-1v-8a1 1 0 00-1-1zm-1 8h-6v-6h6z"/><path data-name="Path 4106" d="M41 10h-8a1 1 0 00-1 1v8a1 1 0 001 1h8a1 1 0 001-1v-8a1 1 0 00-1-1zm-1 8h-6v-6h6z"/><path data-name="Path 4107" d="M30 10h-8a1 1 0 00-1 1v8a1 1 0 001 1h8a1 1 0 001-1v-8a1 1 0 00-1-1zm-1 8h-6v-6h6z"/><path data-name="Path 4108" d="M43 11v8a1 1 0 001 1h8a1 1 0 001-1v-8a1 1 0 00-1-1h-8a1 1 0 00-1 1zm2 1h6v6h-6z"/><path data-name="Path 4109" d="M11 39a1 1 0 00-1-1 1 1 0 00-1 1v1a1 1 0 001 1 1 1 0 001-1z"/></g></svg>