<svg xmlns="http://www.w3.org/2000/svg" width="80.001" height="80.001"><path data-name="Path 4191" d="M40.057 80.001a40.056 40.056 0 10-28.471-11.927l.228.228a39.68 39.68 0 0028.243 11.699zm-26.361-66.3a37.28 37.28 0 110 52.722 37.281 37.281 0 010-52.726z"/><path data-name="Path 4192" d="M21.266 69.136a34.721 34.721 0 003.559 2.016l1.173-2.39a32.092 32.092 0 01-3.285-1.862z"/><path data-name="Path 4193" d="M40.057 72.012a31.909 31.909 0 01-10.225-1.669l-.852 2.523a34.644 34.644 0 0045.7-32.807h-2.668a31.99 31.99 0 01-31.955 31.953z"/><path data-name="Path 4194" d="M14.76 64.024h7.989a1.331 1.331 0 001.331-1.332h4.931a17.2 17.2 0 009.189 2.663h1.542a3.987 3.987 0 002.974 1.332h5.326a3.991 3.991 0 003.478-5.955 3.986 3.986 0 001.225-5.5 3.907 3.907 0 00-.4-.524 3.984 3.984 0 000-5.326 3.991 3.991 0 00-2.974-6.657h-3.994v-6.472a4.184 4.184 0 00-8.325-.593l-.288 2.014a8.981 8.981 0 01-8.889 7.71h-3.8v-1.332a1.331 1.331 0 00-1.331-1.331h-7.989a1.331 1.331 0 00-1.331 1.331v18.64a1.331 1.331 0 001.336 1.332zm35.949-11.981a1.333 1.333 0 01-1.332 1.331h-5.325a1.331 1.331 0 110-2.663h5.325a1.334 1.334 0 011.332 1.332zm0 5.326a1.333 1.333 0 01-1.332 1.331h-5.325a1.332 1.332 0 110-2.663h5.325a1.334 1.334 0 011.332 1.33zm-2.663 6.657H42.72a1.331 1.331 0 010-2.663h5.322a1.331 1.331 0 010 2.663zm2.663-17.309a1.333 1.333 0 01-1.332 1.331h-5.325a1.331 1.331 0 110-2.662h5.325a1.333 1.333 0 011.332 1.329zm-22.828 1.326a11.642 11.642 0 0011.525-10l.289-2.015a1.52 1.52 0 013.025.217v6.7a3.99 3.99 0 00-1.642 6.428 3.984 3.984 0 000 5.326 3.983 3.983 0 00-.505 4.623 3.994 3.994 0 00-1.847 3.365H38.2a14.525 14.525 0 01-8.055-2.439 1.332 1.332 0 00-.739-.224H24.08V48.043zm-11.79-2.662h5.326v15.977h-5.326z"/><path data-name="Path 4195" d="M31.801 18.033l3.2 2.327-1.223 3.766a2 2 0 003.073 2.233l3.2-2.327 3.2 2.327a2 2 0 003.074-2.233l-1.224-3.766 3.2-2.327a2 2 0 00-1.173-3.613h-3.96l-1.223-3.765a2 2 0 00-3.8 0l-1.224 3.765h-3.959a2 2 0 00-1.174 3.613zm5.617-.95a1.993 1.993 0 001.9-1.38l.739-2.277.74 2.277a1.992 1.992 0 001.9 1.38h2.394l-1.938 1.408a1.991 1.991 0 00-.725 2.232L43.167 23l-1.936-1.407a1.993 1.993 0 00-2.348 0L36.946 23l.74-2.277a1.992 1.992 0 00-.726-2.232l-1.937-1.408z"/><path data-name="Path 4196" d="M51.533 28.843l3.2 2.327-1.224 3.766a2 2 0 003.073 2.233l3.2-2.328 3.2 2.327a2 2 0 003.073-2.232l-1.223-3.766 3.2-2.327a2 2 0 00-1.174-3.613h-3.959l-1.224-3.766a2 2 0 00-3.8 0l-1.223 3.766h-3.96a2 2 0 00-1.174 3.613zm5.617-.95a1.994 1.994 0 001.9-1.38l.74-2.277.74 2.277a1.991 1.991 0 001.9 1.38h2.394L62.887 29.3a1.992 1.992 0 00-.725 2.233l.74 2.277-1.937-1.407a1.993 1.993 0 00-2.348 0L56.68 33.81l.739-2.277a1.99 1.99 0 00-.725-2.233l-1.937-1.407z"/><path data-name="Path 4197" d="M14.253 30.176l3.2 2.327-1.223 3.766a2 2 0 003.073 2.233l3.2-2.327 3.2 2.327a2 2 0 003.074-2.233l-1.224-3.766 3.2-2.327a2 2 0 00-1.174-3.613h-3.96l-1.223-3.765a2 2 0 00-3.8 0l-1.223 3.765h-3.96a2 2 0 00-1.174 3.613zm5.617-.95a1.993 1.993 0 001.9-1.38l.739-2.277.74 2.277a1.992 1.992 0 001.9 1.38h2.393l-1.937 1.407a1.993 1.993 0 00-.726 2.233l.74 2.277-1.937-1.407a1.993 1.993 0 00-2.348 0l-1.937 1.408.74-2.277a1.992 1.992 0 00-.725-2.233l-1.937-1.408z"/></svg>