<svg xmlns="http://www.w3.org/2000/svg" width="45" height="39.375"><path data-name="Path 25" d="M18.457 1.23a4.076 4.076 0 011.231 2.989v21.093a13.763 13.763 0 01-1.89 7.032 13.975 13.975 0 01-5.142 5.141 13.766 13.766 0 01-7.031 1.89h-.7a2.037 2.037 0 01-1.494-.615 2.036 2.036 0 01-.615-1.5v-4.209a2.032 2.032 0 01.615-1.494 2.033 2.033 0 011.494-.616h.7a5.4 5.4 0 003.955-1.67 5.4 5.4 0 001.67-3.955v-5.625H4.219a4.06 4.06 0 01-2.988-1.23A4.06 4.06 0 010 15.473V4.223a4.068 4.068 0 011.231-2.989A4.065 4.065 0 014.219.004h11.247a4.072 4.072 0 012.991 1.226zm25.313 0A4.078 4.078 0 0145 4.219v21.093a13.754 13.754 0 01-1.89 7.032 13.965 13.965 0 01-5.141 5.141 13.771 13.771 0 01-7.031 1.89h-.7a2.039 2.039 0 01-1.494-.615 2.04 2.04 0 01-.615-1.5v-4.209a2.036 2.036 0 01.615-1.494 2.035 2.035 0 011.494-.616h.7a5.4 5.4 0 003.955-1.67 5.405 5.405 0 001.67-3.955v-5.625h-7.032a4.063 4.063 0 01-2.988-1.23 4.063 4.063 0 01-1.23-2.988V4.223a4.07 4.07 0 011.23-2.989 4.068 4.068 0 012.988-1.23h11.25a4.074 4.074 0 012.985 1.226z" fill="#fff"/></svg>