<svg xmlns="http://www.w3.org/2000/svg" width="80" height="80.153"><g data-name="Group 404"><path data-name="Path 4169" d="M42.336 62.639a5.83 5.83 0 00-5.828-5.83 5.829 5.829 0 00-5.829 5.828 5.827 5.827 0 005.827 5.829 5.835 5.835 0 005.83-5.827zm-9.309 0a3.48 3.48 0 013.48-3.48 3.48 3.48 0 013.48 3.48 3.48 3.48 0 01-3.48 3.48 3.485 3.485 0 01-3.478-3.48z"/><path data-name="Path 4170" d="M21.998 49.431a5.828 5.828 0 00-5.828 5.829 5.828 5.828 0 005.828 5.828 5.828 5.828 0 005.829-5.828 5.834 5.834 0 00-5.829-5.829zm0 9.308a3.48 3.48 0 01-3.479-3.48 3.48 3.48 0 013.479-3.48 3.48 3.48 0 013.48 3.48 3.485 3.485 0 01-3.48 3.48z"/><path data-name="Path 4171" d="M25.828 25.459a5.828 5.828 0 00-5.83 5.827 5.83 5.83 0 005.828 5.83 5.828 5.828 0 005.829-5.828 5.833 5.833 0 00-5.827-5.829zm0 9.308a3.48 3.48 0 01-3.48-3.48 3.48 3.48 0 013.48-3.48 3.48 3.48 0 013.479 3.48 3.483 3.483 0 01-3.479 3.481z"/><path data-name="Path 4172" d="M41.431 15.517a5.829 5.829 0 00-5.827-5.83 5.83 5.83 0 00-5.83 5.828 5.828 5.828 0 005.826 5.829 5.835 5.835 0 005.831-5.827zm-9.308 0a3.48 3.48 0 013.48-3.48 3.48 3.48 0 013.48 3.48 3.48 3.48 0 01-3.48 3.48 3.484 3.484 0 01-3.483-3.48z"/><path data-name="Path 4173" d="M61.871 21.277a3.5 3.5 0 00-3.5-3.5 3.5 3.5 0 00-3.5 3.5 3.5 3.5 0 003.5 3.5 3.5 3.5 0 003.5-3.5zm-4.654 0a1.152 1.152 0 011.152-1.154 1.152 1.152 0 011.154 1.152 1.152 1.152 0 01-1.152 1.154 1.154 1.154 0 01-1.153-1.152z"/><path data-name="Path 4174" d="M50.881 29.862a3.5 3.5 0 00-3.5 3.5 3.5 3.5 0 003.5 3.5 3.5 3.5 0 003.5-3.5 3.5 3.5 0 00-3.5-3.5zm0 4.654a1.153 1.153 0 01-1.153-1.153 1.154 1.154 0 011.153-1.154 1.154 1.154 0 011.153 1.154 1.154 1.154 0 01-1.153 1.153z"/><path data-name="Path 4175" d="M48.152 17.797a3.5 3.5 0 003.5-3.5 3.5 3.5 0 00-3.5-3.5 3.5 3.5 0 00-3.5 3.5 3.5 3.5 0 003.5 3.5zm0-4.654a1.153 1.153 0 011.154 1.152 1.154 1.154 0 01-1.152 1.155A1.154 1.154 0 0147 14.297a1.154 1.154 0 011.152-1.15z"/><path data-name="Path 4176" d="M36.5 27.172a3.5 3.5 0 003.5 3.5 3.5 3.5 0 003.5-3.5 3.5 3.5 0 00-3.5-3.5 3.506 3.506 0 00-3.5 3.5zm4.654 0a1.152 1.152 0 01-1.152 1.154 1.152 1.152 0 01-1.154-1.152A1.152 1.152 0 0140 26.02a1.154 1.154 0 011.152 1.152z"/><path data-name="Path 4177" d="M13.926 30.801a3.5 3.5 0 00-3.5 3.5 3.5 3.5 0 003.5 3.5 3.5 3.5 0 003.5-3.5 3.507 3.507 0 00-3.5-3.5zm0 4.654a1.154 1.154 0 01-1.155-1.152 1.154 1.154 0 011.153-1.154 1.153 1.153 0 011.154 1.152 1.154 1.154 0 01-1.152 1.154z"/><path data-name="Path 4178" d="M27.29 48.842a3.5 3.5 0 003.5-3.5 3.5 3.5 0 00-3.5-3.5 3.5 3.5 0 00-3.5 3.5 3.505 3.505 0 003.5 3.5zm0-4.654a1.153 1.153 0 011.153 1.153 1.153 1.153 0 01-1.153 1.153 1.153 1.153 0 01-1.153-1.153 1.154 1.154 0 011.153-1.154z"/><path data-name="Path 4179" d="M21.994 23.674a3.508 3.508 0 003.518-3.5 3.507 3.507 0 00-3.5-3.517 3.506 3.506 0 00-3.517 3.5 3.5 3.5 0 001.819 3.084 3.5 3.5 0 001.68.433zm-.318-4.61a1.155 1.155 0 01.325-.047 1.154 1.154 0 011.157 1.153 1.154 1.154 0 01-1.153 1.157 1.155 1.155 0 01-1.157-1.153 1.154 1.154 0 01.828-1.11z"/><path data-name="Path 4180" d="M18.265 47.058a3.5 3.5 0 00-3.5-3.5 3.5 3.5 0 00-3.5 3.5 3.5 3.5 0 003.5 3.5 3.5 3.5 0 003.5-3.5zm-3.5 1.153a1.154 1.154 0 01-1.154-1.154 1.154 1.154 0 011.154-1.153 1.153 1.153 0 011.153 1.153 1.155 1.155 0 01-1.155 1.154z"/><path data-name="Path 4181" d="M47.542 68.462a3.5 3.5 0 003.5-3.5 3.5 3.5 0 00-3.5-3.5 3.5 3.5 0 00-3.5 3.5 3.5 3.5 0 003.5 3.5zm0-4.653a1.153 1.153 0 011.152 1.153 1.152 1.152 0 01-1.152 1.152 1.152 1.152 0 01-1.152-1.152 1.154 1.154 0 011.152-1.149z"/><path data-name="Path 4182" d="M40.001 55.212a3.5 3.5 0 003.5-3.5 3.5 3.5 0 00-3.5-3.5 3.5 3.5 0 00-3.5 3.5 3.5 3.5 0 003.5 3.5zm0-4.654a1.154 1.154 0 011.154 1.153 1.153 1.153 0 01-1.152 1.154 1.153 1.153 0 01-1.154-1.152 1.154 1.154 0 011.152-1.154z"/><path data-name="Path 4183" d="M62.325 25.772a5.828 5.828 0 00-5.828 5.828 5.828 5.828 0 005.828 5.829 5.829 5.829 0 005.829-5.829 5.834 5.834 0 00-5.829-5.828zm0 9.308a3.48 3.48 0 01-3.479-3.48 3.48 3.48 0 013.48-3.48 3.48 3.48 0 013.479 3.48 3.483 3.483 0 01-3.48 3.481z"/><path data-name="Path 4184" d="M79.994 37.515a40.088 40.088 0 00-17.778-30.8 3.515 3.515 0 00-2.659-.51 3.5 3.5 0 00-1.764-2.049 40.147 40.147 0 00-35.585 0 3.506 3.506 0 00-1.763 2.049 3.518 3.518 0 00-2.66.51 40.088 40.088 0 00-17.779 30.8 3.527 3.527 0 00.9 2.562 3.515 3.515 0 00-.892 2.561 40.087 40.087 0 0017.777 30.8 3.5 3.5 0 002.659.51 3.5 3.5 0 001.764 2.049 40.145 40.145 0 0035.584 0 3.519 3.519 0 001.568-4.723 3.691 3.691 0 00-.1-.185L42.039 41.254h12.6v6.663a4.072 4.072 0 004.068 4.075h.081a4.178 4.178 0 004.18-4.165v-1.08a.688.688 0 01.688-.688.688.688 0 01.689.688v8.369a3.457 3.457 0 003.514 3.4 3.455 3.455 0 003.4-3.4V41.252h5.227a3.524 3.524 0 003.519-3.529q0-.1-.006-.207zm-60.5 27c-1.3-1.1-2.192-2.835-3.454-4.336s-2.81-2.666-3.673-4.151c-.85-1.469-1.09-3.4-1.765-5.254-.665-1.827-1.725-3.451-2.024-5.157a19.4 19.4 0 01.1-4.368H37.97L23.325 66.617a19.116 19.116 0 01-3.827-2.1zM8.582 34.534c.3-1.706 1.359-3.33 2.024-5.157.676-1.855.915-3.784 1.765-5.253.858-1.485 2.414-2.652 3.673-4.152s2.145-3.236 3.454-4.336a19.062 19.062 0 013.827-2.1l6.178 10.7a1.175 1.175 0 001.6.461 1.174 1.174 0 00.46-1.6l-.022-.039-6.179-10.7a18.74 18.74 0 013.733-2.269c1.586-.577 3.528-.478 5.48-.819 1.907-.334 3.689-1.1 5.434-1.1s3.527.762 5.434 1.1c1.951.341 3.894.242 5.48.819a18.79 18.79 0 013.733 2.269L40.008 37.727l-5.727-9.92a1.175 1.175 0 00-1.612-.4 1.175 1.175 0 00-.422 1.574l5.727 9.919H8.69a19.341 19.341 0 01-.1-4.368zM23.256 6.261a37.8 37.8 0 0133.5 0 1.167 1.167 0 01.511 1.569c-.01.021-.022.042-.033.062l-1.406 2.428a18.811 18.811 0 00-4.107-2.437c-1.955-.712-4.034-.6-5.877-.926-1.788-.312-3.7-1.131-5.84-1.131s-4.051.819-5.839 1.131c-1.843.323-3.922.214-5.878.926a18.742 18.742 0 00-4.106 2.437l-1.406-2.427a1.168 1.168 0 01.417-1.6.718.718 0 01.061-.033zm-20.9 31.4a37.937 37.937 0 0116.74-28.992 1.168 1.168 0 011.617.34l.037.061 1.405 2.428a19.054 19.054 0 00-4.16 2.342c-1.606 1.353-2.553 3.212-3.742 4.624s-2.852 2.66-3.908 4.484c-1.046 1.807-1.3 3.875-1.938 5.621-.63 1.72-1.768 3.464-2.136 5.555a19.292 19.292 0 00.064 4.772H3.524a1.171 1.171 0 01-1.175-1.167v-.073zm16.74 33.819a37.941 37.941 0 01-16.74-28.992 1.171 1.171 0 011.1-1.236h2.882a19.3 19.3 0 00-.064 4.773c.368 2.094 1.506 3.838 2.131 5.556.638 1.751.893 3.814 1.938 5.621 1.056 1.825 2.722 3.073 3.909 4.485s2.132 3.273 3.742 4.625a19.04 19.04 0 004.156 2.341l-1.405 2.427a1.167 1.167 0 01-1.591.44.955.955 0 01-.063-.038zm37.66 2.409a37.807 37.807 0 01-33.5 0 1.168 1.168 0 01-.511-1.57c.01-.021.022-.041.033-.062l1.406-2.427a18.855 18.855 0 004.1 2.435 1.175 1.175 0 001.505-.7 1.175 1.175 0 00-.7-1.506 18.67 18.67 0 01-3.733-2.27l14.647-25.364 14.646 25.369a18.745 18.745 0 01-3.733 2.27c-1.586.577-3.528.477-5.48.819-1.907.335-3.689 1.1-5.434 1.1-1.862 0-3.689-.85-5.877-1.167a1.174 1.174 0 00-1.335.987 1.173 1.173 0 00.987 1.336h.013c2.024.292 3.953 1.191 6.214 1.191 2.138 0 4.051-.818 5.84-1.131 1.841-.327 3.919-.214 5.876-.929a18.817 18.817 0 004.106-2.437l1.406 2.427a1.168 1.168 0 01-.417 1.6.718.718 0 01-.061.033zm13.331-34.99a1.175 1.175 0 00-1.174 1.175v15.04a1.107 1.107 0 01-1.107 1.107 1.106 1.106 0 01-1.107-1.107v-8.367a3.038 3.038 0 00-3.038-3.037 3.037 3.037 0 00-3.037 3.037v1.077a1.827 1.827 0 01-1.836 1.818h-.071a1.725 1.725 0 01-1.727-1.723v-6.665h8.879a1.174 1.174 0 001.174-1.174 1.175 1.175 0 00-1.174-1.175H42.041l14.646-25.366a19.066 19.066 0 013.827 2.1c1.3 1.1 2.192 2.834 3.454 4.336s2.81 2.666 3.673 4.152c.85 1.468 1.09 3.4 1.765 5.253.665 1.827 1.725 3.451 2.024 5.157a19.334 19.334 0 01-.1 4.368zm6.4 0h-2.81a19.323 19.323 0 00.068-4.775c-.368-2.1-1.506-3.839-2.131-5.557-.637-1.75-.893-3.814-1.938-5.621-1.057-1.825-2.723-3.075-3.91-4.485s-2.132-3.272-3.741-4.624a19.052 19.052 0 00-4.16-2.342l1.4-2.428a1.169 1.169 0 011.593-.439.774.774 0 01.061.038A37.939 37.939 0 0177.656 37.66a1.171 1.171 0 01-1.1 1.238h-.073z"/></g></svg>