<svg xmlns="http://www.w3.org/2000/svg" width="11.433" height="9.285"><path data-name="Path 32" d="M10.084 1.466a4.709 4.709 0 001.349-.363 4.9 4.9 0 01-1.175 1.211c0 .068.007.17.007.305a6.661 6.661 0 01-.276 1.883 6.8 6.8 0 01-.838 1.8 7.043 7.043 0 01-1.338 1.527 5.925 5.925 0 01-1.872 1.059 6.833 6.833 0 01-2.343.4 6.51 6.51 0 01-3.6-1.052 5.091 5.091 0 00.566.029 4.589 4.589 0 002.909-1 2.287 2.287 0 01-1.364-.468 2.29 2.29 0 01-.827-1.157 3 3 0 00.442.036 2.446 2.446 0 00.617-.079 2.305 2.305 0 01-1.346-.81 2.26 2.26 0 01-.533-1.49v-.029a2.311 2.311 0 001.059.3 2.327 2.327 0 01-.761-.834 2.276 2.276 0 01-.283-1.117A2.3 2.3 0 01.796.434a6.622 6.622 0 002.136 1.73 6.527 6.527 0 002.695.722 2.651 2.651 0 01-.058-.536A2.26 2.26 0 016.255.692 2.258 2.258 0 017.913.006a2.261 2.261 0 011.712.74A4.607 4.607 0 0011.112.18a2.279 2.279 0 01-1.03 1.292z" fill="#fff"/></svg>