<svg xmlns="http://www.w3.org/2000/svg" width="12.313" height="10" viewBox="0 0 12.313 10">
  <path id="Path_47" data-name="Path 47" d="M4703.571-4443.37a5.033,5.033,0,0,0,1.453-.391,5.283,5.283,0,0,1-1.266,1.305c.005.073.008.182.008.328a7.169,7.169,0,0,1-.3,2.027,7.336,7.336,0,0,1-.9,1.942,7.621,7.621,0,0,1-1.442,1.644,6.415,6.415,0,0,1-2.015,1.141,7.372,7.372,0,0,1-2.524.426,7.011,7.011,0,0,1-3.875-1.133,5.362,5.362,0,0,0,.61.031,4.939,4.939,0,0,0,3.132-1.078,2.455,2.455,0,0,1-1.468-.5,2.459,2.459,0,0,1-.891-1.246,3.217,3.217,0,0,0,.477.039,2.645,2.645,0,0,0,.664-.086,2.484,2.484,0,0,1-1.45-.871,2.441,2.441,0,0,1-.574-1.606v-.031a2.508,2.508,0,0,0,1.141.321,2.535,2.535,0,0,1-.821-.9,2.463,2.463,0,0,1-.3-1.2,2.461,2.461,0,0,1,.344-1.273,7.143,7.143,0,0,0,2.3,1.863,7.032,7.032,0,0,0,2.9.777,2.773,2.773,0,0,1-.063-.578,2.431,2.431,0,0,1,.738-1.785,2.434,2.434,0,0,1,1.786-.738,2.432,2.432,0,0,1,1.843.8,4.938,4.938,0,0,0,1.6-.609,2.455,2.455,0,0,1-1.109,1.391Z" transform="translate(-4692.711 4444.948)" fill="#fff"/>
</svg>
