<svg xmlns="http://www.w3.org/2000/svg" width="12" height="11.469"><path data-name="Path 48" d="M2.891 1.336a1.239 1.239 0 01-.4.953 1.473 1.473 0 01-1.058.383h-.016a1.41 1.41 0 01-1.031-.383 1.278 1.278 0 01-.391-.953 1.259 1.259 0 01.4-.957A1.472 1.472 0 011.446 0a1.427 1.427 0 011.039.379 1.3 1.3 0 01.406.957zm-.164 2.39v7.743H.149V3.726zM12 7.026v4.438H9.43V7.323a2.259 2.259 0 00-.317-1.285 1.111 1.111 0 00-.988-.465 1.26 1.26 0 00-.824.27 1.652 1.652 0 00-.5.667 1.872 1.872 0 00-.086.633v4.321h-2.57q.015-3.118.015-5.055t-.008-2.313l-.007-.375h2.57v1.125h-.016a3.379 3.379 0 01.321-.437 3.324 3.324 0 01.441-.406 2.029 2.029 0 01.68-.34 3.082 3.082 0 01.894-.121 2.775 2.775 0 012.149.886A3.724 3.724 0 0112 7.031z" fill="#292929"/></svg>