<svg xmlns="http://www.w3.org/2000/svg" width="11.143" height="10.648"><path data-name="Path 34" d="M2.684 1.237a1.149 1.149 0 01-.366.885 1.369 1.369 0 01-.983.356H1.32a1.31 1.31 0 01-.957-.356A1.19 1.19 0 010 1.237 1.166 1.166 0 01.374.349a1.361 1.361 0 01.975-.352 1.323 1.323 0 01.965.352 1.207 1.207 0 01.37.888zm-.152 2.22v7.189H.138V3.457zm8.611 3.069v4.12H8.756V6.801a2.1 2.1 0 00-.294-1.193 1.029 1.029 0 00-.917-.432 1.177 1.177 0 00-.766.251 1.539 1.539 0 00-.46.62 1.761 1.761 0 00-.08.588v4.011H3.852q.015-2.894.015-4.693T3.86 3.805l-.008-.348h2.387v1.045h-.015a3.035 3.035 0 01.3-.406 3.077 3.077 0 01.41-.378 1.894 1.894 0 01.631-.315 2.884 2.884 0 01.831-.113 2.579 2.579 0 011.995.824 3.455 3.455 0 01.752 2.415z" fill="#fff"/></svg>