<svg xmlns="http://www.w3.org/2000/svg" width="12.313" height="10"><path data-name="Path 47" d="M10.86 1.578a5.033 5.033 0 001.453-.391 5.283 5.283 0 01-1.266 1.305c.005.073.008.182.008.328a7.169 7.169 0 01-.3 2.027 7.336 7.336 0 01-.9 1.942 7.621 7.621 0 01-1.442 1.644 6.415 6.415 0 01-2.015 1.141A7.372 7.372 0 013.874 10 7.011 7.011 0 01-.001 8.867a5.362 5.362 0 00.61.031A4.939 4.939 0 003.741 7.82a2.455 2.455 0 01-1.468-.5 2.459 2.459 0 01-.891-1.246 3.217 3.217 0 00.477.039 2.645 2.645 0 00.664-.086 2.484 2.484 0 01-1.45-.871A2.441 2.441 0 01.499 3.55v-.031a2.508 2.508 0 001.141.321 2.535 2.535 0 01-.821-.9 2.463 2.463 0 01-.3-1.2A2.461 2.461 0 01.863.467a7.143 7.143 0 002.3 1.863 7.032 7.032 0 002.9.777A2.773 2.773 0 016 2.529 2.431 2.431 0 016.738.744 2.434 2.434 0 018.524.006a2.432 2.432 0 011.843.8 4.938 4.938 0 001.6-.609 2.455 2.455 0 01-1.109 1.391z" fill="#fff"/></svg>