<svg xmlns="http://www.w3.org/2000/svg" width="12" height="11.469" viewBox="0 0 12 11.469">
  <path id="Path_48" data-name="Path 48" d="M4759.226-4444.456a1.239,1.239,0,0,1-.4.953,1.473,1.473,0,0,1-1.058.383h-.016a1.41,1.41,0,0,1-1.031-.383,1.278,1.278,0,0,1-.391-.953,1.259,1.259,0,0,1,.4-.957,1.472,1.472,0,0,1,1.051-.379,1.427,1.427,0,0,1,1.039.379A1.3,1.3,0,0,1,4759.226-4444.456Zm-.164,2.39v7.743h-2.578v-7.743Zm9.273,3.3v4.438h-2.57v-4.141a2.259,2.259,0,0,0-.317-1.285,1.111,1.111,0,0,0-.988-.465,1.26,1.26,0,0,0-.824.27,1.652,1.652,0,0,0-.5.667,1.872,1.872,0,0,0-.086.633v4.321h-2.57q.015-3.118.015-5.055t-.008-2.313l-.007-.375h2.57v1.125h-.016a3.379,3.379,0,0,1,.321-.437,3.324,3.324,0,0,1,.441-.406,2.029,2.029,0,0,1,.68-.34,3.082,3.082,0,0,1,.894-.121,2.775,2.775,0,0,1,2.149.886A3.724,3.724,0,0,1,4768.335-4438.761Z" transform="translate(-4756.335 4445.792)" fill="#292929"/>
</svg>
