<svg xmlns="http://www.w3.org/2000/svg" width="11.143" height="11.144"><path data-name="Path 33" d="M11.107 3.272q.036.637.036 2.3t-.036 2.3a3.4 3.4 0 01-.9 2.336 3.4 3.4 0 01-2.335.9q-.639.036-2.3.037t-2.3-.037a3.4 3.4 0 01-2.336-.9 3.4 3.4 0 01-.9-2.336q-.038-.639-.037-2.3t.037-2.3a3.4 3.4 0 01.9-2.336 3.4 3.4 0 012.336-.9q.639-.037 2.3-.036t2.3.036a3.4 3.4 0 012.335.9 3.4 3.4 0 01.9 2.336zM6.127.997H4.252c-.175 0-.408.01-.7.022a5.822 5.822 0 00-.747.072 2.805 2.805 0 00-.518.135 1.852 1.852 0 00-.639.421 1.87 1.87 0 00-.421.638 2.986 2.986 0 00-.134.518 5.821 5.821 0 00-.072.748c-.012.292-.02.526-.022.7s0 .429 0 .765v1.875c0 .174.01.408.022.7a5.786 5.786 0 00.072.747 2.982 2.982 0 00.134.519 1.884 1.884 0 00.421.639 1.887 1.887 0 00.639.421 2.98 2.98 0 00.518.134 5.813 5.813 0 00.747.072c.293.012.526.02.7.022s.429 0 .765 0h1.875c.174 0 .408-.01.7-.022a5.782 5.782 0 00.747-.072 2.971 2.971 0 00.519-.134 1.886 1.886 0 00.639-.421 1.9 1.9 0 00.42-.639 2.9 2.9 0 00.134-.519 5.58 5.58 0 00.073-.747c.012-.292.019-.526.022-.7s0-.429 0-.765v-.555-.555-.765c0-.174-.01-.408-.022-.7a5.613 5.613 0 00-.073-.748 2.9 2.9 0 00-.134-.518 1.886 1.886 0 00-.42-.638 1.851 1.851 0 00-.639-.421 2.8 2.8 0 00-.519-.135 5.791 5.791 0 00-.747-.072C7.3 1.007 7.066 1 6.892.997s-.429-.002-.765 0zm1.469 2.55a2.756 2.756 0 01.834 2.024 2.756 2.756 0 01-.834 2.024 2.756 2.756 0 01-2.024.834 2.756 2.756 0 01-2.024-.834 2.756 2.756 0 01-.834-2.024 2.756 2.756 0 01.834-2.024 2.756 2.756 0 012.024-.834 2.756 2.756 0 012.024.834zm-.711 3.337a1.786 1.786 0 00.544-1.313 1.79 1.79 0 00-.544-1.313 1.79 1.79 0 00-1.313-.544 1.789 1.789 0 00-1.313.544 1.79 1.79 0 00-.544 1.313 1.785 1.785 0 00.544 1.313 1.787 1.787 0 001.313.544 1.788 1.788 0 001.31-.546zm2.133-4.759a.647.647 0 01.2.472.642.642 0 01-.2.471.643.643 0 01-.472.2.64.64 0 01-.471-.2.639.639 0 01-.2-.471.643.643 0 01.2-.472.643.643 0 01.471-.2.647.647 0 01.472.2z" fill="#fff"/></svg>