<svg height="52" viewBox="0 0 60 60" width="512" xmlns="http://www.w3.org/2000/svg"><g fill="rgb(0,0,0)" fill-rule="nonzero"><path d="M1.016 52.432l18.708 6.422a1.506 1.506 0 001.854-2.054 17.965 17.965 0 00-4.966-6.256 1.986 1.986 0 01-.577-2.16l4.1-11.941a13.664 13.664 0 009.144-2.124A13.68 13.68 0 0039.867 37.5l4.1 11.938c.27.77.041 1.626-.576 2.159a17.951 17.951 0 00-4.963 6.25 1.5 1.5 0 001.85 2.066L58.984 53.5a1.507 1.507 0 00.2-2.764 17.96 17.96 0 00-7.761-1.887 1.983 1.983 0 01-1.782-1.35l-4.1-11.935a14.026 14.026 0 006.523-14.22c0-.03.01-.058.006-.088a1.007 1.007 0 00-.046-.134 13.9 13.9 0 00-.52-2.06c-.549-1.61-2.54-5.417-6.273-11.993a2.012 2.012 0 00-2.387-.89l-11.3 3.872-14.39-4.943a2.006 2.006 0 00-2.391.907c-3.663 6.44-5.715 10.358-6.271 11.979a14.019 14.019 0 005.966 16.5l-4.1 11.938a1.983 1.983 0 01-1.78 1.35 17.932 17.932 0 00-7.753 1.883 1.506 1.506 0 00.191 2.767zm46.732-4.289a3.994 3.994 0 003.607 2.7c1.992.037 3.961.43 5.816 1.157L40.79 57.626a16.774 16.774 0 013.88-4.489 3.993 3.993 0 001.186-4.345l-4-11.66c.321-.086.643-.177.961-.286s.622-.242.927-.372zm-5.582-13.189a11.963 11.963 0 01-11.242-1.87 13.907 13.907 0 004.051-6c.273-.882.495-1.779.664-2.686L50.2 22.5a12.01 12.01 0 01-8.034 12.454zM43.5 8.063c3.562 6.276 5.62 10.192 6.114 11.642.094.274.165.55.238.826l-13.82 1.8c.177-.988.367-2.114.568-3.378 0-.009.008-.017.01-.027s0-.025 0-.038c.24-1.506.5-3.2.773-5.107a2.005 2.005 0 00-1.329-2.181l-1.431-.491zM16.5 7l18.9 6.494c-.214 1.47-.415 2.816-.607 4.05l-21.741-4.35A355.994 355.994 0 0116.5 7zm-6.12 11.643a31.985 31.985 0 011.694-3.605l22.4 4.482a55.556 55.556 0 01-1.4 6.916c-2.152 6.268-8.978 9.605-15.246 7.454s-9.606-8.979-7.454-15.247zM8.647 49.78a3.994 3.994 0 003.605-2.7l4.007-11.672c.306.13.61.263.929.373s.639.2.959.285l-4 11.663a3.993 3.993 0 001.188 4.346 16.768 16.768 0 013.877 4.488L2.828 50.939a16.761 16.761 0 015.819-1.159z"/><circle cx="27" cy="2" r="1"/><circle cx="38" cy="1" r="1"/><circle cx="33" cy="4" r="1"/><circle cx="37" cy="5" r="1"/><circle cx="22" cy="3" r="1"/><circle cx="29" cy="6" r="1"/><path d="M22.18 32.617c.071 0 .142-.007.212-.022 4.288-.925 8.042-4.6 9.561-9.361a1 1 0 10-1.906-.608c-1.3 4.092-4.476 7.237-8.077 8.014a1 1 0 00.21 1.977zM43.862 31.274a1 1 0 00.6-.2 8.2 8.2 0 003.176-5.744 1 1 0 00-1.992-.173 6.171 6.171 0 01-2.39 4.322 1 1 0 00.6 1.8z"/></g></svg>